<?xml version="1.0" encoding="UTF-8"?><svg xmlns="http://www.w3.org/2000/svg" xmlns:xlink="http://www.w3.org/1999/xlink" contentScriptType="text/ecmascript" width="810" zoomAndPan="magnify" contentStyleType="text/css" viewBox="0 0 810 809.999993" height="809.999993" preserveAspectRatio="xMidYMid meet" version="1.0"><defs><clipPath id="clip-0"><path d="M 149.046875 450 L 661 450 L 661 629 L 149.046875 629 Z M 149.046875 450 " clip-rule="nonzero"/></clipPath><clipPath id="clip-1"><path d="M 149.046875 450 L 354 450 L 354 629 L 149.046875 629 Z M 149.046875 450 " clip-rule="nonzero"/></clipPath><clipPath id="clip-2"><path d="M 253 569 L 314 569 L 314 629.222656 L 253 629.222656 Z M 253 569 " clip-rule="nonzero"/></clipPath></defs><path fill="rgb(100%, 100%, 100%)" d="M 405.003906 123.015625 C 230.414062 123.015625 88.878906 264.550781 88.878906 439.140625 C 88.878906 613.734375 230.414062 755.265625 405.003906 755.265625 C 579.59375 755.265625 721.128906 613.734375 721.128906 439.140625 C 721.128906 264.550781 579.59375 123.015625 405.003906 123.015625 Z M 405.003906 123.015625 " fill-opacity="1" fill-rule="nonzero"/><path fill="rgb(20.779419%, 12.159729%, 9.01947%)" d="M 281.296875 108.21875 C 281.296875 108.21875 199.460938 246.777344 264.875 404.050781 C 264.875 404.050781 272.207031 436.1875 253.253906 453.769531 L 352.328125 446.941406 L 352.328125 172.785156 L 281.296875 108.21875 " fill-opacity="1" fill-rule="nonzero"/><path fill="rgb(20.779419%, 12.159729%, 9.01947%)" d="M 546.648438 100.957031 C 546.648438 100.957031 612.882812 246.777344 547.460938 404.050781 C 547.460938 404.050781 540.136719 436.1875 559.113281 453.769531 L 460.011719 446.941406 L 460.011719 172.785156 L 546.648438 100.957031 " fill-opacity="1" fill-rule="nonzero"/><path fill="rgb(92.549133%, 68.238831%, 57.649231%)" d="M 353.089844 473.527344 L 459.253906 473.527344 L 459.253906 393.703125 L 353.089844 393.703125 Z M 353.089844 473.527344 " fill-opacity="1" fill-rule="nonzero"/><path fill="rgb(76.469421%, 56.079102%, 47.44873%)" d="M 405.019531 450.339844 L 353.089844 450.339844 L 353.089844 405.128906 C 372.523438 420.648438 391.53125 428.847656 404.933594 428.953125 L 404.933594 428.984375 L 405.109375 428.953125 L 405.226562 428.984375 L 405.226562 428.953125 C 417.796875 428.851562 435.28125 421.644531 453.4375 407.964844 C 447.226562 418.753906 439.277344 428.121094 429.578125 436.132812 C 422.300781 442.167969 413.941406 447.054688 405.019531 450.339844 " fill-opacity="1" fill-rule="nonzero"/><path fill="rgb(92.549133%, 68.238831%, 57.649231%)" d="M 537.636719 226.753906 C 537.636719 128.414062 478.695312 71.894531 405.832031 71.425781 C 405.664062 71.425781 405.433594 71.425781 405.226562 71.425781 L 404.933594 71.425781 C 404.757812 71.425781 404.527344 71.425781 404.324219 71.425781 C 331.496094 71.894531 272.554688 128.414062 272.554688 226.753906 C 272.554688 354.269531 364.363281 428.632812 404.933594 428.953125 L 404.933594 428.984375 L 405.109375 428.953125 L 405.226562 428.984375 L 405.226562 428.953125 C 445.800781 428.632812 537.636719 354.269531 537.636719 226.753906 " fill-opacity="1" fill-rule="nonzero"/><path fill="rgb(92.549133%, 68.238831%, 57.649231%)" d="M 524.554688 263.132812 L 517.007812 321.113281 C 546.738281 334.191406 551.382812 265.980469 551.382812 265.980469 C 544.523438 248.984375 524.554688 263.132812 524.554688 263.132812 " fill-opacity="1" fill-rule="nonzero"/><path fill="rgb(92.549133%, 68.238831%, 57.649231%)" d="M 262.144531 265.980469 C 262.144531 265.980469 266.796875 334.191406 296.527344 321.113281 L 288.972656 263.132812 C 288.972656 263.132812 269.003906 248.984375 262.144531 265.980469 " fill-opacity="1" fill-rule="nonzero"/><g clip-path="url(#clip-0)"><path fill="rgb(92.549133%, 68.238831%, 57.649231%)" d="M 352.679688 450.339844 L 225.007812 489.835938 C 225.007812 489.835938 180.308594 497.796875 168.914062 544.261719 L 149.355469 628.59375 L 660.835938 628.59375 L 641.28125 544.261719 C 629.882812 497.796875 585.183594 489.835938 585.183594 489.835938 L 457.480469 450.339844 L 352.679688 450.339844 " fill-opacity="1" fill-rule="nonzero"/><path fill="rgb(26.669312%, 75.289917%, 74.508667%)" d="M 352.679688 450.339844 L 225.007812 489.835938 C 225.007812 489.835938 180.308594 497.796875 168.914062 544.261719 L 149.355469 628.59375 L 660.835938 628.59375 L 641.28125 544.261719 C 629.882812 497.796875 585.183594 489.835938 585.183594 489.835938 L 457.480469 450.339844 L 406.15625 562.457031 L 352.679688 450.339844 " fill-opacity="1" fill-rule="nonzero"/></g><path fill="rgb(21.569824%, 12.548828%, 9.01947%)" d="M 505 164.972656 C 505 164.972656 539.382812 371.679688 484.945312 441.507812 C 484.945312 441.507812 542.054688 386.964844 522.085938 182.085938 L 505 164.972656 " fill-opacity="1" fill-rule="nonzero"/><path fill="rgb(21.569824%, 12.548828%, 9.01947%)" d="M 297.199219 164.972656 C 297.199219 164.972656 262.8125 371.679688 317.21875 441.507812 C 317.21875 441.507812 260.144531 386.964844 280.105469 182.085938 L 297.199219 164.972656 " fill-opacity="1" fill-rule="nonzero"/><g clip-path="url(#clip-1)"><path fill="rgb(89.019775%, 89.408875%, 87.449646%)" d="M 352.679688 450.339844 L 353.089844 628.59375 L 149.355469 628.59375 L 168.914062 544.261719 C 180.308594 497.796875 225.007812 489.835938 225.007812 489.835938 L 352.679688 450.339844 " fill-opacity="1" fill-rule="nonzero"/></g><path fill="rgb(17.248535%, 48.239136%, 48.629761%)" d="M 386.917969 523.453125 C 375.769531 517.636719 364.480469 515.46875 353.820312 515.46875 C 353.484375 515.46875 353.160156 515.46875 352.828125 515.472656 L 352.785156 497.316406 C 376.46875 497.535156 386.917969 523.453125 386.917969 523.453125 " fill-opacity="1" fill-rule="nonzero"/><path fill="rgb(58.428955%, 57.649231%, 56.858826%)" d="M 296.527344 534.324219 C 320.097656 506.199219 338.5625 497.316406 352.492188 497.316406 C 352.589844 497.316406 352.691406 497.316406 352.785156 497.316406 L 352.828125 515.472656 C 321.867188 515.867188 296.527344 534.324219 296.527344 534.324219 " fill-opacity="1" fill-rule="nonzero"/><path fill="rgb(23.919678%, 66.668701%, 65.879822%)" d="M 390.726562 530.109375 C 390.726562 530.109375 369.160156 475.765625 296.527344 534.324219 L 322.453125 459.695312 L 352.679688 450.339844 L 390.726562 530.109375 " fill-opacity="1" fill-rule="nonzero"/><path fill="rgb(89.019775%, 89.408875%, 87.449646%)" d="M 457.917969 450.339844 L 459.253906 628.59375 L 660.835938 628.59375 L 641.28125 544.261719 C 629.882812 497.796875 585.183594 489.835938 585.183594 489.835938 L 457.480469 450.339844 L 457.917969 450.339844 " fill-opacity="1" fill-rule="nonzero"/><path fill="rgb(17.248535%, 48.239136%, 48.629761%)" d="M 425.480469 520.261719 L 426.359375 518.367188 C 428.628906 514.097656 435.667969 504.078125 451.828125 504.078125 C 453.847656 504.078125 456.011719 504.234375 458.324219 504.578125 L 458.335938 505.617188 C 457.507812 507.90625 456.753906 510.28125 456.066406 512.75 C 446.230469 512.773438 435.835938 514.851562 425.480469 520.261719 " fill-opacity="1" fill-rule="nonzero"/><path fill="rgb(58.428955%, 57.649231%, 56.858826%)" d="M 513.664062 534 C 510.785156 531.71875 492.742188 518.042969 469.328125 513.925781 C 469.945312 511.847656 470.605469 509.882812 471.308594 508.042969 C 482.632812 512.261719 496.5625 520.265625 513.664062 534 M 458.335938 505.617188 L 458.324219 504.578125 C 458.449219 504.597656 458.574219 504.613281 458.699219 504.632812 C 458.574219 504.957031 458.453125 505.289062 458.335938 505.617188 " fill-opacity="1" fill-rule="nonzero"/><path fill="rgb(60.389709%, 43.919373%, 36.859131%)" d="M 426.097656 518.878906 C 426.144531 518.777344 426.191406 518.675781 426.25 518.570312 L 426.171875 518.726562 C 426.148438 518.777344 426.125 518.828125 426.097656 518.878906 " fill-opacity="1" fill-rule="nonzero"/><path fill="rgb(17.248535%, 48.239136%, 48.629761%)" d="M 426.171875 518.726562 L 426.25 518.570312 C 426.34375 518.367188 426.449219 518.152344 426.566406 517.921875 L 426.359375 518.367188 C 426.296875 518.492188 426.234375 518.609375 426.171875 518.726562 " fill-opacity="1" fill-rule="nonzero"/><path fill="rgb(23.919678%, 66.668701%, 65.879822%)" d="M 425.480469 520.261719 C 425.480469 520.261719 441.433594 475.765625 514.070312 534.324219 L 488.140625 459.695312 L 457.917969 450.339844 L 425.480469 520.261719 " fill-opacity="1" fill-rule="nonzero"/><path fill="rgb(20.779419%, 12.159729%, 9.01947%)" d="M 353.089844 128.46875 C 353.089844 128.46875 309.433594 143.40625 296.527344 195.082031 C 296.527344 195.082031 294.113281 230.328125 274.382812 257.617188 C 274.382812 257.617188 265.230469 252.472656 262.144531 265.980469 C 262.144531 265.980469 226.460938 77.070312 359.425781 56.523438 L 353.089844 128.46875 " fill-opacity="1" fill-rule="nonzero"/><path fill="rgb(16.468811%, 9.408569%, 6.669617%)" d="M 537.636719 257.617188 C 537.023438 257.554688 536.425781 257.5 535.816406 257.4375 C 535.820312 257.398438 535.828125 257.347656 535.832031 257.304688 C 536.425781 257.417969 537.03125 257.515625 537.636719 257.617188 " fill-opacity="1" fill-rule="nonzero"/><path fill="rgb(68.629456%, 50.19989%, 42.349243%)" d="M 535.816406 257.4375 C 532.59375 257.125 529.398438 256.769531 526.28125 256.394531 C 526.277344 255.859375 526.269531 255.316406 526.265625 254.773438 C 529.261719 255.820312 532.453125 256.683594 535.832031 257.304688 C 535.828125 257.347656 535.820312 257.398438 535.816406 257.4375 " fill-opacity="1" fill-rule="nonzero"/><path fill="rgb(16.859436%, 9.408569%, 6.669617%)" d="M 526.28125 256.394531 C 524.742188 256.207031 523.222656 256.015625 521.699219 255.816406 C 521.539062 254.742188 521.351562 253.714844 521.132812 252.730469 C 522.78125 253.472656 524.488281 254.15625 526.265625 254.773438 C 526.269531 255.316406 526.277344 255.859375 526.28125 256.394531 " fill-opacity="1" fill-rule="nonzero"/><path fill="rgb(68.629456%, 50.19989%, 42.349243%)" d="M 441.140625 234.828125 C 354.125 197.886719 343.640625 132.945312 343.640625 132.945312 C 344.136719 132.941406 344.625 132.941406 345.121094 132.941406 C 345.316406 132.941406 345.515625 132.941406 345.707031 132.941406 C 351.414062 147.050781 379.011719 202.847656 467.300781 230.992188 C 456.171875 231.546875 447.636719 232.886719 441.140625 234.828125 M 494.644531 231.050781 C 492.039062 230.761719 489.332031 230.625 486.558594 230.574219 C 483.554688 225.152344 480.574219 217 482.277344 207.691406 C 482.277344 207.691406 485.625 219.0625 494.644531 231.050781 " fill-opacity="1" fill-rule="nonzero"/><path fill="rgb(20.779419%, 12.159729%, 9.01947%)" d="M 344.480469 129.636719 C 344.480469 129.636719 369.011719 209.320312 491.457031 237.59375 C 491.457031 237.59375 479.191406 224.546875 482.277344 207.691406 C 482.277344 207.691406 495.003906 250.902344 537.636719 257.617188 C 537.636719 257.617188 544.585938 257.761719 546.648438 259.617188 C 546.648438 259.617188 569.546875 193.949219 549.960938 115.859375 C 549.960938 115.859375 532.777344 19.441406 419.117188 22.867188 C 419.117188 22.867188 331.867188 20.890625 334.164062 89.035156 L 344.480469 129.636719 " fill-opacity="1" fill-rule="nonzero"/><path fill="rgb(74.119568%, 73.728943%, 74.119568%)" d="M 559.113281 453.769531 L 557.984375 453.710938 C 557.964844 453.707031 557.953125 453.699219 557.941406 453.6875 L 559.113281 453.769531 M 545.800781 101.652344 C 545.796875 101.648438 545.796875 101.640625 545.789062 101.636719 L 546.648438 100.957031 L 545.800781 101.652344 " fill-opacity="1" fill-rule="nonzero"/><path fill="rgb(16.468811%, 9.408569%, 6.669617%)" d="M 559.113281 453.769531 L 557.941406 453.6875 C 538.71875 443.542969 523.714844 425.941406 518.339844 401.898438 C 512.488281 375.363281 524.324219 347.054688 531.488281 320.71875 C 548.347656 310.535156 551.382812 265.980469 551.382812 265.980469 C 550.160156 262.953125 548.519531 260.914062 546.648438 259.605469 C 547.035156 258.488281 569.378906 193.273438 549.960938 115.859375 C 549.960938 115.859375 548.949219 110.195312 545.800781 101.652344 L 546.648438 100.957031 C 546.648438 100.957031 576.332031 166.300781 576.324219 256.6875 C 576.324219 301.320312 569.085938 352.0625 547.460938 404.050781 C 547.460938 404.050781 546.070312 410.144531 546.070312 418.480469 C 546.070312 429.28125 548.402344 443.84375 559.113281 453.769531 M 546.539062 259.523438 C 546.277344 259.351562 546.015625 259.1875 545.738281 259.03125 C 546.046875 259.179688 546.3125 259.34375 546.539062 259.523438 " fill-opacity="1" fill-rule="nonzero"/><path fill="rgb(68.629456%, 50.19989%, 42.349243%)" d="M 531.488281 320.71875 C 532.578125 316.710938 533.558594 312.753906 534.355469 308.851562 C 537.785156 292.058594 539.550781 274.914062 539.875 257.753906 C 541.675781 257.917969 544.175781 258.273438 545.738281 259.03125 C 546.015625 259.1875 546.277344 259.351562 546.539062 259.523438 C 546.574219 259.554688 546.613281 259.585938 546.648438 259.617188 C 546.648438 259.617188 546.648438 259.617188 546.648438 259.605469 C 548.519531 260.914062 550.160156 262.953125 551.382812 265.980469 C 551.382812 265.980469 548.347656 310.535156 531.488281 320.71875 " fill-opacity="1" fill-rule="nonzero"/><path fill="rgb(74.119568%, 73.728943%, 74.119568%)" d="M 532.082031 74.847656 C 515.242188 49.890625 483.480469 22.78125 424.988281 22.78125 C 423.058594 22.78125 421.113281 22.804688 419.117188 22.867188 C 421.125 22.804688 423.082031 22.773438 425.027344 22.773438 C 483.523438 22.773438 515.261719 49.898438 532.082031 74.847656 " fill-opacity="1" fill-rule="nonzero"/><path fill="rgb(16.468811%, 9.408569%, 6.669617%)" d="M 546.648438 259.617188 C 546.613281 259.585938 546.574219 259.554688 546.539062 259.523438 C 546.3125 259.34375 546.046875 259.179688 545.738281 259.03125 C 544.175781 258.273438 541.675781 257.917969 539.875 257.753906 C 540.152344 242.507812 539.3125 227.242188 537.492188 212.167969 C 533.65625 180.140625 522.871094 150.644531 510.554688 121.035156 C 500.238281 96.273438 488.578125 67.417969 463.617188 54.253906 C 452.203125 48.21875 438.492188 45.84375 424.753906 45.84375 C 412.9375 45.84375 401.105469 47.601562 390.695312 50.300781 C 369.765625 55.675781 355.675781 71.140625 348.464844 90.902344 C 344.890625 100.6875 343.320312 111.265625 342.511719 121.820312 L 334.164062 89.035156 C 334.136719 88.15625 334.121094 87.292969 334.121094 86.429688 C 334.121094 81.46875 334.605469 76.902344 335.507812 72.679688 C 342.734375 67.457031 350.105469 62.402344 357.21875 56.929688 C 350.839844 58.019531 344.859375 59.503906 339.257812 61.335938 C 356.4375 24.082031 411.273438 22.863281 418.363281 22.863281 C 418.855469 22.863281 419.117188 22.867188 419.117188 22.867188 C 421.113281 22.804688 423.058594 22.78125 424.988281 22.78125 C 483.480469 22.78125 515.242188 49.890625 532.082031 74.847656 C 538.734375 84.722656 543.054688 94.261719 545.769531 101.648438 L 545.789062 101.636719 C 545.796875 101.640625 545.796875 101.648438 545.800781 101.652344 C 548.949219 110.195312 549.960938 115.859375 549.960938 115.859375 C 569.378906 193.273438 547.035156 258.488281 546.648438 259.605469 C 546.648438 259.617188 546.648438 259.617188 546.648438 259.617188 " fill-opacity="1" fill-rule="nonzero"/><path fill="rgb(74.119568%, 73.728943%, 74.119568%)" d="M 253.253906 453.769531 L 303.945312 450.277344 C 303.945312 450.277344 303.9375 450.285156 303.9375 450.285156 L 253.253906 453.769531 " fill-opacity="1" fill-rule="nonzero"/><path fill="rgb(16.468811%, 9.408569%, 6.669617%)" d="M 253.253906 453.769531 C 263.941406 443.855469 266.273438 429.308594 266.273438 418.511719 C 266.273438 410.15625 264.875 404.050781 264.875 404.050781 C 212.152344 277.285156 255.105469 162.625 273.753906 122.960938 C 261.613281 150.753906 258.054688 182.527344 257.804688 209.046875 C 253.777344 237.171875 254.023438 266.292969 257.851562 292.921875 C 261.015625 315.066406 267.230469 336.191406 277.8125 355.925781 C 280.765625 361.441406 283.808594 366.792969 286.777344 372.097656 C 293.140625 399.148438 301.121094 416.839844 307.316406 427.585938 C 308.210938 437.316406 306.875 444.671875 303.945312 450.277344 L 253.253906 453.769531 M 307.019531 424.875 C 301.527344 413.582031 297.363281 400.394531 294.277344 386.085938 C 300.355469 398.144531 305.253906 410.582031 307.019531 424.875 " fill-opacity="1" fill-rule="nonzero"/><path fill="rgb(16.859436%, 9.408569%, 6.669617%)" d="M 307.316406 427.585938 C 301.121094 416.839844 293.140625 399.148438 286.777344 372.097656 C 289.375 376.757812 291.917969 381.394531 294.277344 386.085938 C 297.363281 400.394531 301.527344 413.582031 307.019531 424.875 C 307.117188 425.65625 307.207031 426.445312 307.28125 427.238281 C 307.292969 427.355469 307.304688 427.46875 307.316406 427.585938 " fill-opacity="1" fill-rule="nonzero"/><path fill="rgb(16.468811%, 9.408569%, 6.669617%)" d="M 257.804688 209.046875 C 258.054688 182.527344 261.613281 150.753906 273.753906 122.960938 C 273.941406 122.574219 274.113281 122.191406 274.296875 121.820312 C 276.273438 117.375 278.480469 113.042969 280.953125 108.859375 C 281.152344 108.449219 281.296875 108.21875 281.296875 108.21875 L 281.296875 108.25 C 293.617188 87.429688 312.042969 70.242188 339.257812 61.335938 C 337.660156 64.800781 336.386719 68.574219 335.507812 72.679688 C 326.164062 79.429688 317.042969 86.46875 309 95.050781 C 307.859375 96.269531 306.746094 97.496094 305.648438 98.738281 C 310.890625 90.140625 316.484375 82.191406 321.296875 77.984375 C 322.917969 76.707031 323.84375 76.078125 323.84375 76.078125 C 323.027344 76.578125 322.175781 77.21875 321.296875 77.984375 C 312.457031 84.933594 282.980469 110.992188 270.6875 157.925781 C 264.582031 173.988281 260.34375 191.316406 257.804688 209.046875 " fill-opacity="1" fill-rule="nonzero"/><path fill="rgb(13.729858%, 7.449341%, 4.708862%)" d="M 335.507812 72.679688 C 336.386719 68.574219 337.660156 64.800781 339.257812 61.335938 C 344.859375 59.503906 350.839844 58.019531 357.21875 56.929688 C 350.105469 62.402344 342.734375 67.457031 335.507812 72.679688 " fill-opacity="1" fill-rule="nonzero"/><path fill="rgb(30.979919%, 20.779419%, 15.689087%)" d="M 279.351562 232.332031 C 274.675781 181.21875 289.527344 144.953125 289.527344 144.953125 C 267.492188 170.957031 265.636719 213.820312 265.636719 213.820312 C 264.265625 192.675781 266.460938 174.0625 270.6875 157.925781 C 271.308594 156.285156 271.953125 154.664062 272.613281 153.054688 C 280.730469 133.265625 291.527344 114.769531 305.648438 98.738281 C 295.761719 114.957031 287.082031 133.46875 287.082031 133.46875 C 303.246094 120.0625 316.761719 116.808594 326.078125 116.808594 C 334.847656 116.808594 339.890625 119.699219 339.890625 119.699219 C 284.003906 142.652344 279.351562 232.332031 279.351562 232.332031 " fill-opacity="1" fill-rule="nonzero"/><path fill="rgb(26.269531%, 17.248535%, 12.939453%)" d="M 270.6875 157.925781 C 282.980469 110.992188 312.457031 84.933594 321.296875 77.984375 C 316.484375 82.191406 310.890625 90.140625 305.648438 98.738281 C 291.527344 114.769531 280.730469 133.265625 272.613281 153.054688 C 271.953125 154.664062 271.308594 156.285156 270.6875 157.925781 M 321.296875 77.984375 C 322.175781 77.21875 323.027344 76.578125 323.84375 76.078125 C 323.84375 76.078125 322.917969 76.707031 321.296875 77.984375 " fill-opacity="1" fill-rule="nonzero"/><path fill="rgb(30.979919%, 20.779419%, 15.689087%)" d="M 471.546875 219.953125 C 381.21875 199.289062 359.425781 124.289062 359.425781 124.289062 C 388.894531 164.824219 406.15625 167.910156 406.15625 167.910156 C 385.203125 139.574219 411.855469 115.859375 411.855469 115.859375 C 413.363281 141.867188 471.546875 187.027344 471.546875 187.027344 C 437.109375 185.519531 415.480469 161.253906 415.480469 161.253906 C 427.546875 198.242188 471.546875 219.953125 471.546875 219.953125 " fill-opacity="1" fill-rule="nonzero"/><path fill="rgb(13.729858%, 12.159729%, 12.548828%)" d="M 391.742188 273.894531 C 384.910156 293.472656 367.328125 307.914062 345.445312 306.144531 C 323.558594 304.398438 309.605469 287.082031 308.703125 267.347656 C 307.164062 233.785156 329.226562 234.746094 351.167969 234.921875 C 405.457031 235.355469 395.808594 256.453125 391.742188 273.894531 M 351.195312 229.28125 C 325.796875 229.046875 300.222656 227.96875 301.996094 266.855469 C 303.074219 289.695312 319.230469 309.777344 344.574219 311.8125 C 369.886719 313.851562 390.285156 297.105469 398.21875 274.410156 C 402.902344 254.1875 414.085938 229.804688 351.195312 229.28125 " fill-opacity="1" fill-rule="nonzero"/><path fill="rgb(13.729858%, 12.159729%, 12.548828%)" d="M 472.539062 236.429688 C 494.476562 235.816406 516.539062 234.453125 515.636719 268.046875 C 515.109375 287.75 501.484375 305.359375 479.65625 307.542969 C 457.832031 309.71875 439.925781 295.621094 432.75 276.1875 C 428.300781 258.808594 418.25 237.914062 472.539062 236.429688 M 426.296875 276.855469 C 434.609375 299.375 455.332031 315.707031 480.640625 313.175781 C 505.929688 310.652344 521.714844 290.25 522.324219 267.410156 C 523.339844 228.492188 497.816406 230.097656 472.417969 230.792969 C 409.527344 232.507812 421.179688 256.714844 426.296875 276.855469 " fill-opacity="1" fill-rule="nonzero"/><path fill="rgb(13.729858%, 12.159729%, 12.548828%)" d="M 400.863281 255.726562 C 400.863281 255.726562 414.410156 246.863281 427.171875 256.078125 C 427.171875 256.078125 424.117188 247.324219 429.785156 241.484375 C 429.785156 241.484375 415.925781 234.683594 398.132812 241.109375 C 398.132812 241.109375 401.710938 249.800781 400.863281 255.726562 " fill-opacity="1" fill-rule="nonzero"/><path fill="rgb(13.729858%, 12.159729%, 12.548828%)" d="M 315.390625 233.960938 L 289.296875 236.839844 L 286.882812 261.65625 L 305.652344 274.0625 C 305.652344 274.0625 301.582031 249.914062 315.390625 233.960938 " fill-opacity="1" fill-rule="nonzero"/><path fill="rgb(13.729858%, 12.159729%, 12.548828%)" d="M 511.855469 236.984375 L 539.699219 239.363281 L 539.699219 265.378906 L 520.578125 277.316406 C 520.578125 277.316406 525.253906 253.285156 511.855469 236.984375 " fill-opacity="1" fill-rule="nonzero"/><path fill="rgb(94.119263%, 74.119568%, 65.098572%)" d="M 475.226562 307.757812 C 455.425781 307.757812 439.433594 294.296875 432.75 276.1875 C 431.21875 270.195312 429.015625 263.789062 429.015625 257.898438 C 429.015625 249.511719 433.472656 242.1875 450.660156 238.636719 C 468.734375 245.441406 489.832031 251.054688 514.417969 254.78125 C 514.75 260.660156 515.035156 266.699219 515.25 272.828125 C 512.835938 290.523438 499.699219 305.539062 479.65625 307.542969 C 478.160156 307.691406 476.683594 307.757812 475.226562 307.757812 " fill-opacity="1" fill-rule="nonzero"/><path fill="rgb(32.159424%, 21.958923%, 17.649841%)" d="M 515.25 272.828125 C 515.035156 266.699219 514.75 260.660156 514.417969 254.78125 C 514.4375 254.78125 514.460938 254.785156 514.480469 254.785156 C 515.25 257.984375 515.667969 261.726562 515.667969 266.089844 C 515.667969 266.730469 515.652344 267.378906 515.636719 268.046875 C 515.589844 269.652344 515.464844 271.25 515.25 272.828125 " fill-opacity="1" fill-rule="nonzero"/><path fill="rgb(74.508667%, 58.428955%, 51.368713%)" d="M 514.417969 254.78125 C 489.832031 251.054688 468.734375 245.441406 450.660156 238.636719 C 456.421875 237.445312 463.609375 236.671875 472.539062 236.429688 C 475.902344 236.335938 479.28125 236.222656 482.574219 236.222656 C 483.710938 236.222656 484.832031 236.242188 485.949219 236.265625 C 487.761719 236.722656 489.59375 237.164062 491.457031 237.59375 C 491.457031 237.59375 491.109375 237.222656 490.546875 236.527344 C 494.449219 236.871094 498.117188 237.570312 501.378906 238.867188 C 504.355469 241.871094 507.734375 244.769531 511.558594 247.363281 C 512.75 249.363281 513.707031 251.707031 514.402344 254.46875 C 514.40625 254.570312 514.414062 254.675781 514.417969 254.78125 " fill-opacity="1" fill-rule="nonzero"/><path fill="rgb(27.839661%, 19.219971%, 14.898682%)" d="M 514.480469 254.785156 C 514.460938 254.785156 514.4375 254.78125 514.417969 254.78125 C 514.414062 254.675781 514.40625 254.570312 514.402344 254.46875 C 514.425781 254.574219 514.449219 254.679688 514.480469 254.785156 " fill-opacity="1" fill-rule="nonzero"/><path fill="rgb(31.759644%, 21.958923%, 17.248535%)" d="M 511.558594 247.363281 C 507.734375 244.769531 504.355469 241.871094 501.378906 238.867188 C 505.554688 240.523438 509.0625 243.179688 511.558594 247.363281 M 491.457031 237.59375 C 489.59375 237.164062 487.761719 236.722656 485.949219 236.265625 C 487.507812 236.316406 489.046875 236.398438 490.546875 236.527344 C 491.109375 237.222656 491.457031 237.59375 491.457031 237.59375 " fill-opacity="1" fill-rule="nonzero"/><path fill="rgb(30.979919%, 29.798889%, 29.798889%)" d="M 475.226562 307.757812 C 455.425781 307.757812 439.433594 294.296875 432.75 276.1875 C 431.21875 270.195312 429.015625 263.789062 429.015625 257.898438 C 429.015625 263.789062 431.21875 270.195312 432.75 276.1875 C 439.433594 294.296875 455.425781 307.757812 475.226562 307.757812 C 476.683594 307.757812 478.160156 307.691406 479.65625 307.542969 C 499.699219 305.539062 512.835938 290.523438 515.25 272.828125 C 515.464844 271.25 515.589844 269.652344 515.636719 268.046875 C 515.652344 267.378906 515.667969 266.730469 515.667969 266.089844 C 515.667969 266.730469 515.652344 267.378906 515.636719 268.046875 C 515.109375 287.75 501.484375 305.359375 479.65625 307.542969 C 478.160156 307.691406 476.683594 307.757812 475.226562 307.757812 " fill-opacity="1" fill-rule="nonzero"/><path fill="rgb(94.119263%, 74.119568%, 65.098572%)" d="M 349.054688 306.089844 C 347.867188 306.089844 346.664062 306.039062 345.445312 305.9375 C 323.558594 304.199219 309.605469 286.878906 308.703125 267.148438 C 308.660156 266.070312 308.628906 265.023438 308.628906 264.011719 C 308.671875 236.847656 325.957031 234.878906 344.875 234.878906 C 346.957031 234.878906 349.0625 234.902344 351.167969 234.921875 C 387.140625 235.207031 395.039062 244.570312 395.097656 255.925781 C 395.070312 261.644531 393.09375 267.851562 391.742188 273.65625 C 385.289062 292.152344 369.25 306.089844 349.054688 306.089844 " fill-opacity="1" fill-rule="nonzero"/><path fill="rgb(30.979919%, 29.798889%, 29.798889%)" d="M 308.628906 264.011719 C 308.589844 236.757812 325.777344 234.671875 344.65625 234.671875 C 346.8125 234.671875 348.988281 234.695312 351.167969 234.714844 C 387.382812 235.007812 395.144531 244.476562 395.097656 255.925781 C 395.039062 244.570312 387.140625 235.207031 351.167969 234.921875 C 349.0625 234.902344 346.957031 234.878906 344.875 234.878906 C 325.957031 234.878906 308.671875 236.847656 308.628906 264.011719 " fill-opacity="1" fill-rule="nonzero"/><path fill="rgb(9.799194%, 11.759949%, 16.859436%)" d="M 506.277344 447.433594 C 497.125 437.585938 481.515625 433.253906 459.808594 434.59375 L 459.6875 434.59375 L 459.6875 448.394531 L 460.011719 448.394531 L 460.441406 448.363281 C 477.53125 447.292969 489.855469 450.140625 496.015625 456.648438 C 501.277344 462.164062 500.609375 468.789062 500.554688 469.082031 L 514.214844 470.917969 C 514.300781 470.363281 515.929688 457.871094 506.277344 447.433594 " fill-opacity="1" fill-rule="nonzero"/><path fill="rgb(9.799194%, 11.759949%, 16.859436%)" d="M 352.328125 434.59375 L 351.957031 434.59375 C 349.511719 434.53125 331.957031 434.675781 314.78125 450.980469 C 291.675781 472.859375 272.554688 534.324219 276.535156 599.621094 L 290.3125 599.621094 C 285.746094 528.886719 310.128906 474.605469 323.84375 461.355469 C 337.621094 448.078125 350.996094 448.363281 351.488281 448.363281 L 352.328125 448.363281 L 352.328125 434.59375 " fill-opacity="1" fill-rule="nonzero"/><path fill="rgb(74.119568%, 73.728943%, 73.728943%)" d="M 559.554688 543.15625 C 561.261719 543.15625 562.714844 544.523438 562.808594 546.265625 C 562.867188 547.140625 563.761719 567.71875 560.390625 594.890625 C 560.277344 595.785156 559.523438 603.167969 555.628906 610.605469 C 550.105469 621.300781 541.039062 626.964844 529.414062 626.964844 C 527.585938 626.964844 526.128906 625.484375 526.128906 623.683594 C 526.128906 621.878906 527.585938 620.429688 529.414062 620.429688 C 551.300781 620.429688 553.738281 595.320312 553.824219 594.246094 L 553.855469 594.128906 C 557.167969 567.511719 556.261719 546.789062 556.238281 546.585938 C 556.183594 544.757812 557.578125 543.242188 559.375 543.15625 L 559.554688 543.15625 " fill-opacity="1" fill-rule="nonzero"/><path fill="rgb(56.469727%, 55.688477%, 55.688477%)" d="M 535.515625 626.40625 C 535.683594 626.101562 535.796875 625.765625 535.859375 625.410156 C 535.863281 625.410156 535.863281 625.402344 535.863281 625.402344 C 535.863281 625.402344 535.863281 625.402344 535.863281 625.394531 C 535.972656 624.835938 535.976562 624.210938 535.976562 623.527344 C 535.976562 623.527344 535.976562 623.519531 535.976562 623.511719 C 535.976562 623.507812 535.976562 623.5 535.976562 623.496094 C 535.976562 623.480469 535.976562 623.464844 535.976562 623.449219 C 535.976562 623.445312 535.976562 623.445312 535.976562 623.4375 C 535.976562 623.4375 535.976562 623.433594 535.976562 623.433594 C 535.976562 623.417969 535.976562 623.414062 535.976562 623.40625 C 535.976562 623.402344 535.976562 623.402344 535.976562 623.402344 C 535.976562 623.394531 535.976562 623.390625 535.976562 623.382812 C 535.976562 623.382812 535.976562 623.375 535.976562 623.375 C 535.976562 623.371094 535.976562 623.363281 535.976562 623.359375 C 535.976562 623.359375 535.976562 623.351562 535.976562 623.34375 C 535.976562 623.34375 535.976562 623.339844 535.976562 623.332031 C 535.964844 622.972656 535.957031 622.621094 535.933594 622.285156 C 543.421875 620.714844 549.332031 616.019531 553.246094 608.429688 C 556.675781 601.859375 557.34375 595.351562 557.429688 594.566406 C 559.253906 579.953125 559.660156 567.503906 559.699219 559.835938 C 560.871094 559.800781 561.972656 559.496094 562.921875 558.976562 C 562.777344 567.730469 562.191406 580.363281 560.390625 594.890625 C 560.277344 595.785156 559.523438 603.167969 555.628906 610.605469 C 551.113281 619.347656 544.230469 624.730469 535.515625 626.40625 " fill-opacity="1" fill-rule="nonzero"/><path fill="rgb(74.119568%, 73.728943%, 73.728943%)" d="M 457.742188 543.15625 C 456 543.15625 454.546875 544.523438 454.457031 546.265625 C 454.433594 547.140625 453.53125 567.71875 456.902344 594.890625 C 456.988281 595.785156 457.769531 603.167969 461.609375 610.605469 C 467.15625 621.300781 476.226562 626.964844 487.847656 626.964844 C 489.6875 626.964844 491.164062 625.484375 491.164062 623.683594 C 491.164062 621.878906 489.6875 620.429688 487.847656 620.429688 C 465.96875 620.429688 463.527344 595.320312 463.4375 594.246094 L 463.410156 594.128906 C 460.09375 567.511719 461 546.789062 461.023438 546.585938 C 461.117188 544.757812 459.6875 543.242188 457.886719 543.15625 L 457.742188 543.15625 " fill-opacity="1" fill-rule="nonzero"/><path fill="rgb(56.469727%, 55.688477%, 55.688477%)" d="M 485.207031 626.867188 C 474.851562 626.0625 466.734375 620.476562 461.609375 610.605469 C 457.769531 603.167969 456.988281 595.785156 456.902344 594.890625 C 455.101562 580.390625 454.519531 567.765625 454.371094 559.015625 C 455.3125 559.511719 456.410156 559.804688 457.582031 559.835938 C 457.621094 567.503906 458.035156 579.953125 459.863281 594.566406 C 459.917969 595.351562 460.625 601.859375 464.023438 608.429688 C 468.460938 617.042969 475.5 621.929688 484.453125 622.746094 C 484.445312 622.941406 484.433594 623.132812 484.425781 623.332031 C 484.425781 623.351562 484.425781 623.375 484.425781 623.394531 C 484.425781 623.40625 484.425781 623.417969 484.425781 623.433594 C 484.425781 623.433594 484.425781 623.433594 484.425781 623.4375 C 484.425781 623.46875 484.425781 623.5 484.425781 623.53125 C 484.425781 623.539062 484.425781 623.539062 484.425781 623.542969 C 484.425781 624.222656 484.433594 624.847656 484.542969 625.410156 C 484.644531 625.949219 484.835938 626.441406 485.207031 626.867188 " fill-opacity="1" fill-rule="nonzero"/><path fill="rgb(9.799194%, 11.759949%, 16.859436%)" d="M 506.332031 465.972656 C 506.539062 465.972656 506.6875 466.003906 506.832031 466.003906 C 506.976562 466.003906 507.09375 466.003906 507.238281 466.003906 C 520.523438 466.003906 531.882812 470.160156 541.070312 478.351562 C 567.546875 502.128906 566.121094 552.140625 566.0625 554.257812 C 565.914062 557.425781 562.898438 559.925781 559.292969 559.835938 C 555.660156 559.71875 552.839844 557.078125 552.929688 553.910156 C 552.953125 553.273438 554.230469 506.601562 531.652344 486.40625 C 524.878906 480.328125 516.738281 477.425781 506.832031 477.488281 C 506.625 477.488281 506.570312 477.511719 506.363281 477.488281 C 505.554688 477.457031 495.960938 477.425781 486.164062 485.675781 C 476.195312 494.074219 464.308594 512.761719 464.308594 554.085938 C 464.308594 557.25 461.371094 559.835938 457.769531 559.835938 C 454.109375 559.835938 451.171875 557.25 451.171875 554.085938 C 451.171875 517.292969 460.070312 491.34375 477.53125 476.988281 C 490.007812 466.703125 502.90625 465.972656 506.332031 465.972656 " fill-opacity="1" fill-rule="nonzero"/><path fill="rgb(58.428955%, 57.649231%, 56.858826%)" d="M 562.921875 558.976562 C 564.730469 557.992188 565.96875 556.257812 566.0625 554.257812 C 566.070312 554.023438 566.089844 553.191406 566.089844 551.871094 C 566.089844 553.191406 566.070312 554.023438 566.0625 554.257812 C 565.96875 556.257812 564.730469 557.992188 562.921875 558.976562 " fill-opacity="1" fill-rule="nonzero"/><path fill="rgb(39.608765%, 38.42926%, 38.819885%)" d="M 559.699219 559.835938 C 560.871094 559.800781 561.972656 559.496094 562.921875 558.976562 C 561.972656 559.496094 560.871094 559.800781 559.699219 559.835938 " fill-opacity="1" fill-rule="nonzero"/><path fill="rgb(58.428955%, 57.649231%, 56.858826%)" d="M 556.324219 559.132812 C 554.378906 558.191406 553.046875 556.410156 552.929688 554.347656 C 553.046875 556.390625 554.375 558.171875 556.324219 559.121094 C 556.324219 559.121094 556.324219 559.128906 556.324219 559.132812 " fill-opacity="1" fill-rule="nonzero"/><path fill="rgb(49.798584%, 49.01886%, 49.409485%)" d="M 559.292969 559.835938 C 558.214844 559.8125 557.203125 559.558594 556.324219 559.132812 C 556.324219 559.128906 556.324219 559.121094 556.324219 559.121094 C 557.203125 559.542969 558.207031 559.804688 559.292969 559.835938 " fill-opacity="1" fill-rule="nonzero"/><path fill="rgb(6.669617%, 7.449341%, 10.978699%)" d="M 559.472656 559.835938 C 559.410156 559.835938 559.347656 559.835938 559.292969 559.835938 C 558.207031 559.804688 557.203125 559.542969 556.324219 559.121094 C 554.375 558.171875 553.046875 556.390625 552.929688 554.347656 C 556.007812 554.347656 558.5625 552.21875 558.652344 549.496094 C 558.738281 547.664062 559.984375 504.074219 536.882812 483.382812 C 528.890625 476.203125 518.984375 472.597656 507.4375 472.597656 L 507.0625 472.597656 C 506.976562 472.574219 506.800781 472.574219 506.625 472.574219 C 503.660156 472.574219 492.414062 473.242188 481.546875 482.160156 C 466.316406 494.683594 458.585938 517.292969 458.585938 549.347656 C 458.585938 552.109375 461.171875 554.347656 464.285156 554.378906 C 464.109375 557.382812 461.292969 559.804688 457.832031 559.835938 C 457.824219 559.835938 457.820312 559.835938 457.8125 559.835938 C 457.8125 559.835938 457.804688 559.835938 457.804688 559.835938 C 457.800781 559.835938 457.792969 559.835938 457.792969 559.835938 C 457.789062 559.835938 457.78125 559.835938 457.769531 559.835938 C 457.707031 559.835938 457.644531 559.835938 457.582031 559.835938 C 456.410156 559.804688 455.3125 559.511719 454.371094 559.015625 C 452.449219 558.011719 451.171875 556.171875 451.171875 554.085938 C 451.171875 517.292969 460.070312 491.34375 477.53125 476.988281 C 490.007812 466.703125 502.90625 465.972656 506.332031 465.972656 C 506.539062 465.972656 506.6875 466.003906 506.832031 466.003906 C 506.976562 466.003906 507.09375 466.003906 507.238281 466.003906 C 520.523438 466.003906 531.882812 470.160156 541.070312 478.351562 C 564.597656 499.476562 566.089844 541.332031 566.089844 551.871094 C 566.089844 553.191406 566.070312 554.023438 566.0625 554.257812 C 565.96875 556.257812 564.730469 557.992188 562.921875 558.976562 C 561.972656 559.496094 560.871094 559.800781 559.699219 559.835938 C 559.628906 559.835938 559.554688 559.835938 559.480469 559.835938 C 559.480469 559.835938 559.480469 559.835938 559.472656 559.835938 " fill-opacity="1" fill-rule="nonzero"/><path fill="rgb(9.799194%, 11.759949%, 16.859436%)" d="M 516.484375 623.332031 C 516.484375 620.195312 519.039062 617.667969 522.117188 617.667969 L 532.699219 618.59375 C 535.976562 619.410156 535.894531 621.125 535.976562 623.332031 C 535.976562 625.6875 535.976562 627.433594 532.4375 628.246094 L 522.117188 628.972656 C 519.039062 628.972656 516.484375 626.441406 516.484375 623.332031 " fill-opacity="1" fill-rule="nonzero"/><path fill="rgb(25.489807%, 28.239441%, 37.249756%)" d="M 522.871094 627.546875 C 521.332031 627.546875 519.9375 626.9375 518.921875 625.949219 C 520.230469 624.0625 521.855469 623.332031 524.386719 623.332031 C 527.523438 623.332031 529.355469 624.117188 529.121094 627.109375 L 522.871094 627.546875 " fill-opacity="1" fill-rule="nonzero"/><path fill="rgb(30.589294%, 29.40979%, 29.798889%)" d="M 535.859375 625.410156 C 535.863281 625.410156 535.863281 625.402344 535.863281 625.402344 C 535.863281 625.402344 535.863281 625.410156 535.859375 625.410156 M 535.863281 625.394531 C 535.972656 624.835938 535.976562 624.207031 535.976562 623.527344 C 535.976562 624.210938 535.972656 624.835938 535.863281 625.394531 M 535.976562 623.496094 C 535.976562 623.480469 535.976562 623.464844 535.976562 623.449219 C 535.976562 623.464844 535.976562 623.480469 535.976562 623.496094 M 535.976562 623.4375 C 535.976562 623.4375 535.976562 623.433594 535.976562 623.433594 C 535.976562 623.433594 535.976562 623.4375 535.976562 623.4375 M 535.976562 623.40625 C 535.976562 623.402344 535.976562 623.402344 535.976562 623.402344 C 535.976562 623.402344 535.976562 623.402344 535.976562 623.40625 " fill-opacity="1" fill-rule="nonzero"/><path fill="rgb(42.749023%, 41.958618%, 41.569519%)" d="M 518.507812 618.988281 C 519.46875 618.183594 520.691406 617.691406 522.023438 617.667969 C 520.695312 617.691406 519.46875 618.183594 518.507812 618.988281 M 522.023438 617.667969 C 522.03125 617.667969 522.039062 617.667969 522.042969 617.667969 C 522.039062 617.667969 522.03125 617.667969 522.023438 617.667969 M 522.050781 617.667969 C 522.050781 617.667969 522.054688 617.667969 522.0625 617.667969 C 522.054688 617.667969 522.050781 617.667969 522.050781 617.667969 M 522.0625 617.667969 C 522.070312 617.667969 522.074219 617.667969 522.074219 617.667969 C 522.074219 617.667969 522.070312 617.667969 522.0625 617.667969 M 522.082031 617.667969 C 522.085938 617.667969 522.085938 617.667969 522.09375 617.667969 C 522.085938 617.667969 522.085938 617.667969 522.082031 617.667969 M 522.101562 617.667969 C 522.105469 617.667969 522.113281 617.667969 522.117188 617.667969 C 522.113281 617.667969 522.105469 617.667969 522.101562 617.667969 " fill-opacity="1" fill-rule="nonzero"/><path fill="rgb(5.099487%, 5.879211%, 7.839966%)" d="M 533.070312 628.070312 C 533.070312 624.148438 531.246094 620.953125 526.652344 620.285156 C 525.660156 620.140625 524.6875 620.066406 523.75 620.066406 C 521.046875 620.066406 518.601562 620.707031 516.59375 622.261719 C 516.84375 620.953125 517.535156 619.8125 518.507812 618.988281 C 519.46875 618.183594 520.695312 617.691406 522.023438 617.667969 C 522.03125 617.667969 522.039062 617.667969 522.042969 617.667969 C 522.042969 617.667969 522.042969 617.667969 522.050781 617.667969 C 522.050781 617.667969 522.054688 617.667969 522.0625 617.667969 C 522.070312 617.667969 522.074219 617.667969 522.074219 617.667969 C 522.082031 617.667969 522.082031 617.667969 522.082031 617.667969 C 522.085938 617.667969 522.085938 617.667969 522.09375 617.667969 C 522.09375 617.667969 522.101562 617.667969 522.101562 617.667969 C 522.105469 617.667969 522.113281 617.667969 522.117188 617.667969 L 532.699219 618.59375 C 535.976562 619.410156 535.894531 621.125 535.976562 623.332031 C 535.976562 623.339844 535.976562 623.34375 535.976562 623.34375 C 535.976562 623.351562 535.976562 623.359375 535.976562 623.359375 C 535.976562 623.363281 535.976562 623.371094 535.976562 623.375 C 535.976562 623.375 535.976562 623.382812 535.976562 623.382812 C 535.976562 623.390625 535.976562 623.394531 535.976562 623.402344 C 535.976562 623.402344 535.976562 623.402344 535.976562 623.40625 C 535.976562 623.414062 535.976562 623.417969 535.976562 623.433594 C 535.976562 623.433594 535.976562 623.4375 535.976562 623.4375 C 535.976562 623.445312 535.976562 623.445312 535.976562 623.449219 C 535.976562 623.464844 535.976562 623.480469 535.976562 623.496094 C 535.976562 623.5 535.976562 623.507812 535.976562 623.511719 C 535.976562 623.519531 535.976562 623.527344 535.976562 623.527344 C 535.976562 624.207031 535.972656 624.835938 535.863281 625.394531 C 535.863281 625.402344 535.863281 625.402344 535.863281 625.402344 C 535.863281 625.402344 535.863281 625.410156 535.859375 625.410156 C 535.632812 626.585938 534.980469 627.496094 533.070312 628.070312 " fill-opacity="1" fill-rule="nonzero"/><path fill="rgb(9.799194%, 11.759949%, 16.859436%)" d="M 503.921875 623.332031 C 503.921875 620.195312 501.394531 617.667969 498.285156 617.667969 L 487.707031 618.59375 C 484.425781 619.410156 484.539062 621.125 484.425781 623.332031 C 484.425781 625.6875 484.425781 627.433594 487.96875 628.246094 L 498.285156 628.972656 C 501.394531 628.972656 503.921875 626.441406 503.921875 623.332031 " fill-opacity="1" fill-rule="nonzero"/><path fill="rgb(25.489807%, 28.239441%, 37.249756%)" d="M 497.53125 627.546875 L 491.285156 627.109375 C 491.054688 624.117188 492.855469 623.332031 496.046875 623.332031 C 498.546875 623.332031 500.175781 624.0625 501.484375 625.949219 C 500.46875 626.9375 499.101562 627.546875 497.53125 627.546875 " fill-opacity="1" fill-rule="nonzero"/><path fill="rgb(30.589294%, 29.40979%, 29.798889%)" d="M 484.542969 625.410156 C 484.433594 624.847656 484.425781 624.222656 484.425781 623.542969 C 484.425781 624.21875 484.433594 624.839844 484.542969 625.410156 M 484.425781 623.53125 C 484.425781 623.5 484.425781 623.46875 484.425781 623.4375 C 484.425781 623.46875 484.425781 623.5 484.425781 623.53125 M 484.425781 623.433594 C 484.425781 623.417969 484.425781 623.40625 484.425781 623.394531 C 484.425781 623.40625 484.425781 623.417969 484.425781 623.433594 " fill-opacity="1" fill-rule="nonzero"/><path fill="rgb(5.099487%, 5.879211%, 7.839966%)" d="M 487.332031 628.070312 C 485.425781 627.496094 484.769531 626.585938 484.542969 625.410156 C 484.433594 624.839844 484.425781 624.21875 484.425781 623.542969 C 484.425781 623.539062 484.425781 623.539062 484.425781 623.53125 C 484.425781 623.5 484.425781 623.46875 484.425781 623.4375 C 484.425781 623.433594 484.425781 623.433594 484.425781 623.433594 C 484.425781 623.417969 484.425781 623.40625 484.425781 623.394531 C 484.425781 623.375 484.425781 623.351562 484.425781 623.332031 C 484.539062 621.125 484.425781 619.410156 487.707031 618.59375 L 498.285156 617.667969 C 498.292969 617.667969 498.296875 617.667969 498.304688 617.667969 C 498.304688 617.667969 498.308594 617.667969 498.308594 617.667969 C 498.316406 617.667969 498.316406 617.667969 498.324219 617.667969 C 498.324219 617.667969 498.328125 617.667969 498.328125 617.667969 C 498.335938 617.667969 498.335938 617.667969 498.335938 617.667969 C 498.339844 617.667969 498.347656 617.667969 498.347656 617.667969 C 498.347656 617.667969 498.347656 617.667969 498.355469 617.667969 C 498.355469 617.667969 498.359375 617.667969 498.367188 617.667969 C 501.066406 617.710938 503.292969 619.667969 503.808594 622.261719 C 501.800781 620.707031 499.355469 620.066406 496.652344 620.066406 C 495.714844 620.066406 494.742188 620.140625 493.753906 620.285156 C 489.132812 620.953125 487.332031 624.148438 487.332031 628.070312 " fill-opacity="1" fill-rule="nonzero"/><g clip-path="url(#clip-2)"><path fill="rgb(9.799194%, 11.759949%, 16.859436%)" d="M 253.777344 599.621094 C 253.777344 583.230469 267.058594 569.980469 283.453125 569.980469 C 299.8125 569.980469 313.097656 583.230469 313.097656 599.621094 C 313.097656 615.984375 299.8125 629.261719 283.453125 629.261719 C 267.058594 629.261719 253.777344 615.984375 253.777344 599.621094 " fill-opacity="1" fill-rule="nonzero"/></g><path fill="rgb(65.489197%, 64.709473%, 65.098572%)" d="M 261.914062 599.621094 C 261.914062 587.738281 271.535156 578.113281 283.453125 578.113281 C 295.3125 578.113281 304.929688 587.738281 304.929688 599.621094 C 304.929688 611.507812 295.3125 621.125 283.453125 621.125 C 271.535156 621.125 261.914062 611.507812 261.914062 599.621094 " fill-opacity="1" fill-rule="nonzero"/><path fill="rgb(56.858826%, 56.079102%, 56.079102%)" d="M 265.34375 599.621094 C 265.34375 589.628906 273.453125 581.550781 283.453125 581.550781 C 293.421875 581.550781 301.496094 589.628906 301.496094 599.621094 C 301.496094 609.617188 293.421875 617.699219 283.453125 617.699219 C 273.453125 617.699219 265.34375 609.617188 265.34375 599.621094 " fill-opacity="1" fill-rule="nonzero"/></svg>